<?xml version="1.0" standalone="no"?>
<!DOCTYPE svg PUBLIC "-//W3C//DTD SVG 20010904//EN"
 "http://www.w3.org/TR/2001/REC-SVG-20010904/DTD/svg10.dtd">
<svg version="1.0" xmlns="http://www.w3.org/2000/svg"
 width="1024.000000pt" height="1024.000000pt" viewBox="0 0 1024.000000 1024.000000"
 preserveAspectRatio="xMidYMid meet">
<metadata>
Created by potrace 1.11, written by Peter Selinger 2001-2013
</metadata>
<g transform="translate(0.000000,1024.000000) scale(0.100000,-0.100000)"
fill="#000000" stroke="none">
<path d="M0 5120 l0 -5120 5120 0 5120 0 0 5120 0 5120 -5120 0 -5120 0 0
-5120z m9395 1548 c60 -32 115 -87 146 -148 32 -64 38 -189 13 -262 -26 -72
-119 -166 -191 -191 -63 -23 -172 -24 -232 -3 -169 60 -257 249 -196 426 23
70 118 169 185 193 71 26 211 18 275 -15z m-3055 -488 l0 -470 315 0 315 0 0
-285 0 -285 -315 0 -315 0 0 -845 c0 -570 4 -860 11 -895 15 -69 64 -139 119
-169 35 -20 63 -26 133 -29 144 -7 279 30 440 122 42 24 77 40 77 34 0 -5 -32
-136 -72 -290 l-72 -281 -44 -28 c-62 -39 -198 -86 -299 -104 -101 -18 -255
-19 -339 -4 -315 57 -528 316 -564 685 -5 55 -10 480 -10 952 l0 852 -260 0
-260 0 0 285 0 285 260 0 260 0 0 309 0 309 298 160 c163 88 303 160 310 161
9 1 12 -99 12 -469z m-3500 -435 c191 -31 388 -114 554 -233 80 -58 289 -258
284 -273 -2 -5 -81 -103 -177 -218 l-174 -210 -71 65 c-140 129 -302 220 -474
266 -92 24 -293 29 -387 9 -369 -77 -614 -304 -721 -666 -35 -121 -45 -354
-20 -488 39 -208 115 -356 256 -498 183 -185 388 -269 655 -269 132 0 235 18
339 60 123 48 266 142 372 242 l51 48 159 -192 c87 -106 167 -203 178 -216
l18 -23 -113 -113 c-130 -129 -224 -198 -359 -266 -191 -95 -331 -129 -570
-137 -472 -15 -869 128 -1180 423 -213 203 -358 470 -419 772 -45 218 -47 491
-6 712 120 645 603 1099 1280 1204 125 20 406 20 525 1z m1818 -1542 l2 -1513
-315 0 -315 0 0 1515 0 1515 313 -2 312 -3 3 -1512z m3562 2 l0 -1515 -310 0
-310 0 0 1515 0 1515 310 0 310 0 0 -1515z"/>
<path d="M9122 6614 c-94 -47 -141 -126 -142 -239 0 -119 52 -200 159 -248 65
-29 181 -21 245 17 90 53 132 140 124 258 -11 147 -112 237 -269 238 -51 0
-77 -6 -117 -26z m236 -79 c17 -14 33 -39 37 -55 9 -40 -11 -95 -43 -120 l-26
-21 32 -65 c18 -35 32 -67 32 -69 0 -3 -17 -5 -38 -5 -37 0 -39 2 -72 70 -30
62 -37 70 -61 70 -28 0 -28 -1 -31 -67 l-3 -68 -32 -3 -33 -3 0 180 0 181 104
0 c97 0 107 -2 134 -25z"/>
<path d="M9190 6450 l0 -50 48 0 c57 0 95 22 90 53 -4 28 -42 47 -95 47 l-43
0 0 -50z"/>
</g>
</svg>
